<?xml version="1.0" encoding="utf-8"?>
<!-- Generator: Adobe Illustrator 16.0.0, SVG Export Plug-In . SVG Version: 6.00 Build 0)  -->
<!DOCTYPE svg PUBLIC "-//W3C//DTD SVG 1.1//EN" "http://www.w3.org/Graphics/SVG/1.1/DTD/svg11.dtd">
<svg version="1.1" id="Layer_1" xmlns="http://www.w3.org/2000/svg" xmlns:xlink="http://www.w3.org/1999/xlink" x="0px" y="0px"
	 width="993.062px" height="484.449px" viewBox="0 0 993.062 484.449" enable-background="new 0 0 993.062 484.449"
	 xml:space="preserve">
<g>
	<path fill="#FEC016" d="M255.492,172.229c18.54-7.5,34.79-15.205,48.75-23.125c13.955-7.915,25.625-15.781,35-23.594
		s16.455-15.361,21.25-22.656c4.79-7.29,7.188-13.955,7.188-20c0-2.08-1.045-4.478-3.125-7.188c-2.085-2.705-5.264-5.205-9.531-7.5
		c-4.272-2.29-9.639-4.219-16.094-5.781c-6.46-1.563-13.96-2.344-22.5-2.344c-22.92,0-44.17,2.764-63.75,8.281
		c-19.585,5.522-37.397,12.241-53.438,20.156c-16.045,7.92-30.21,16.201-42.5,24.844c-12.295,8.647-22.607,16.201-30.938,22.656
		c-5.21,3.96-9.741,7.866-13.594,11.719c-3.857,3.857-7.607,7.295-11.25,10.313c-3.647,3.022-7.554,5.469-11.719,7.344
		c-4.17,1.875-9.17,2.813-15,2.813c-8.75,0-15.576-2.08-20.469-6.25c-4.897-4.165-7.344-10-7.344-17.5
		c0-8.955,3.54-18.486,10.625-28.594c7.08-10.103,16.875-20.156,29.375-30.156s27.188-19.531,44.063-28.594
		s35.049-17.031,54.531-23.906c19.478-6.875,39.79-12.393,60.938-16.563c21.143-4.165,42.344-6.25,63.594-6.25
		c21.875,0,40.728,1.772,56.563,5.313c15.83,3.545,28.799,8.438,38.906,14.688c10.103,6.25,17.603,13.647,22.5,22.188
		c4.893,8.545,7.344,17.813,7.344,27.813s-3.335,20.42-10,31.25c-6.67,10.835-16.201,21.67-28.594,32.5
		c-12.397,10.835-27.5,21.201-45.313,31.094c-17.813,9.897-37.866,18.906-60.156,27.031c22.08,7.295,40.049,14.951,53.906,22.969
		c13.853,8.022,24.688,16.357,32.5,25c7.813,8.648,13.071,17.607,15.781,26.875c2.705,9.273,4.063,18.805,4.063,28.594
		c0,14.375-3.96,28.545-11.875,42.5c-7.92,13.961-18.906,27.139-32.969,39.531c-14.063,12.398-30.732,23.857-50,34.375
		c-19.272,10.523-40.264,19.586-62.969,27.188c-22.71,7.607-46.67,13.541-71.875,17.813c-25.21,4.268-50.732,6.406-76.563,6.406
		c-9.17,0-18.438-0.521-27.813-1.563c-9.375-1.045-17.969-2.92-25.781-5.625c-7.813-2.709-14.17-6.352-19.063-10.938
		c-4.897-4.58-7.344-10.518-7.344-17.813c0-0.83,0.049-1.611,0.156-2.344c0.103-0.727,0.259-1.611,0.469-2.656
		c0.83-1.664,1.768-3.695,2.813-6.094c1.04-2.393,3.438-4.736,7.188-7.031c3.75-2.289,9.634-4.219,17.656-5.781
		c8.018-1.563,19.531-2.344,34.531-2.344c26.04-47.705,47.549-88.799,64.531-123.281c16.978-34.477,31.196-62.861,42.656-85.156
		c11.455-22.29,21.094-38.75,28.906-49.375s15.469-15.938,22.969-15.938c3.33,0,6.563,0.522,9.688,1.563
		c3.125,1.045,5.884,2.451,8.281,4.219c2.393,1.772,4.321,3.96,5.781,6.563c1.455,2.607,2.188,5.469,2.188,8.594
		c-1.67,2.085-2.607,4.219-2.813,6.406C255.595,167.073,255.492,169.524,255.492,172.229z M238.305,231.917
		c-9.375,21.25-18.179,40.312-26.406,57.187c-8.232,16.875-15.991,32.344-23.281,46.406c-7.295,14.063-14.219,27.188-20.781,39.375
		s-12.969,24.117-19.219,35.781c24.165-2.08,46.719-6.299,67.656-12.656c20.938-6.352,39.165-14.219,54.688-23.594
		c15.518-9.375,27.705-19.893,36.563-31.563c8.853-11.664,13.281-23.955,13.281-36.875c0-5.83-1.304-11.977-3.906-18.438
		c-2.607-6.455-7.031-12.914-13.281-19.375c-6.25-6.455-14.688-12.813-25.313-19.062
		C267.68,242.854,254.345,237.126,238.305,231.917z"/>
	<path d="M580.555,123.479c17.29,0,30.205,4.17,38.75,12.5c8.54,8.335,12.813,19.898,12.813,34.687c0,8.75-2.295,17.92-6.875,27.5
		c-4.585,9.586-12.5,19.326-23.75,29.219c-11.25,9.898-26.304,20-45.156,30.313c-18.857,10.313-42.451,20.68-70.781,31.094
		c1.04,6.045,4.268,10.781,9.688,14.219c5.415,3.438,12.603,5.156,21.563,5.156c9.58,0,19.844-1.406,30.781-4.219
		s21.768-6.406,32.5-10.781c10.728-4.375,21.196-9.111,31.406-14.219c10.205-5.102,19.424-9.945,27.656-14.531
		c8.228-4.58,15.103-8.539,20.625-11.875c5.518-3.33,9.219-5.414,11.094-6.25c1.875-1.25,3.594-1.977,5.156-2.188
		c1.563-0.205,2.969-0.313,4.219-0.313c2.5,0,4.58,0.576,6.25,1.719c1.665,1.148,3.071,2.5,4.219,4.063
		c1.143,1.563,1.924,3.232,2.344,5c0.415,1.773,0.625,3.281,0.625,4.531c0,1.875-0.21,4.117-0.625,6.719
		c-0.42,2.607-1.982,5.576-4.688,8.906c-1.045,1.045-4.531,3.857-10.469,8.438c-5.938,4.586-13.594,10-22.969,16.25
		s-20.264,12.867-32.656,19.844c-12.397,6.982-25.522,13.389-39.375,19.219c-13.857,5.836-28.281,10.68-43.281,14.531
		c-15,3.854-29.795,5.781-44.375,5.781c-12.5,0-23.594-2.396-33.281-7.188c-9.688-4.789-17.92-11.25-24.688-19.375
		c-6.772-8.125-11.929-17.5-15.469-28.125c-3.545-10.625-5.313-21.768-5.313-33.438c0-8.955,1.768-18.799,5.313-29.531
		c3.54-10.727,8.643-21.508,15.313-32.344c6.665-10.83,14.844-21.406,24.531-31.719s20.571-19.424,32.656-27.344
		c12.08-7.914,25.361-14.267,39.844-19.062C548.626,125.876,564.095,123.479,580.555,123.479z M569.305,166.604
		c-1.045-0.205-1.982-0.313-2.813-0.313c-0.835,0-1.772,0-2.813,0c-7.92,0-15.313,1.563-22.188,4.688s-13.179,7.242-18.906,12.344
		c-5.732,5.107-10.835,10.889-15.313,17.344c-4.482,6.461-8.491,12.867-12.031,19.219c-3.545,6.357-6.514,12.451-8.906,18.281
		c-2.397,5.836-4.219,10.732-5.469,14.688c7.29-3.75,14.844-8.018,22.656-12.813c7.813-4.789,15.156-9.375,22.031-13.75
		s12.861-8.33,17.969-11.875c5.103-3.539,8.696-5.938,10.781-7.188c9.375-5.83,15.83-11.299,19.375-16.406
		c3.54-5.102,5.313-9.531,5.313-13.281c0-3.125-0.991-5.625-2.969-7.5C574.041,168.166,571.805,167.023,569.305,166.604z"/>
	<path fill="#FEC016" d="M867.555,123.479c17.29,0,30.205,4.17,38.75,12.5c8.54,8.335,12.813,19.898,12.813,34.687
		c0,8.75-2.295,17.92-6.875,27.5c-4.585,9.586-12.5,19.326-23.75,29.219c-11.25,9.898-26.304,20-45.156,30.313
		c-18.857,10.313-42.451,20.68-70.781,31.094c1.04,6.045,4.268,10.781,9.688,14.219c5.415,3.438,12.603,5.156,21.563,5.156
		c9.58,0,19.844-1.406,30.781-4.219s21.768-6.406,32.5-10.781c10.728-4.375,21.196-9.111,31.406-14.219
		c10.205-5.102,19.424-9.945,27.656-14.531c8.228-4.58,15.103-8.539,20.625-11.875c5.518-3.33,9.219-5.414,11.094-6.25
		c1.875-1.25,3.594-1.977,5.156-2.188c1.563-0.205,2.969-0.313,4.219-0.313c2.5,0,4.58,0.576,6.25,1.719
		c1.665,1.148,3.071,2.5,4.219,4.063c1.143,1.563,1.924,3.232,2.344,5c0.415,1.773,0.625,3.281,0.625,4.531
		c0,1.875-0.21,4.117-0.625,6.719c-0.42,2.607-1.982,5.576-4.688,8.906c-1.045,1.045-4.531,3.857-10.469,8.438
		c-5.938,4.586-13.594,10-22.969,16.25s-20.264,12.867-32.656,19.844c-12.397,6.982-25.522,13.389-39.375,19.219
		c-13.857,5.836-28.281,10.68-43.281,14.531c-15,3.854-29.795,5.781-44.375,5.781c-12.5,0-23.594-2.396-33.281-7.188
		c-9.688-4.789-17.92-11.25-24.688-19.375c-6.772-8.125-11.929-17.5-15.469-28.125c-3.545-10.625-5.313-21.768-5.313-33.438
		c0-8.955,1.768-18.799,5.313-29.531c3.54-10.727,8.643-21.508,15.313-32.344c6.665-10.83,14.844-21.406,24.531-31.719
		s20.571-19.424,32.656-27.344c12.08-7.914,25.361-14.267,39.844-19.062C835.626,125.876,851.095,123.479,867.555,123.479z
		 M856.305,166.604c-1.045-0.205-1.982-0.313-2.813-0.313c-0.835,0-1.772,0-2.813,0c-7.92,0-15.313,1.563-22.188,4.688
		s-13.179,7.242-18.906,12.344c-5.732,5.107-10.835,10.889-15.313,17.344c-4.482,6.461-8.491,12.867-12.031,19.219
		c-3.545,6.357-6.514,12.451-8.906,18.281c-2.397,5.836-4.219,10.732-5.469,14.688c7.29-3.75,14.844-8.018,22.656-12.813
		c7.813-4.789,15.156-9.375,22.031-13.75s12.861-8.33,17.969-11.875c5.103-3.539,8.696-5.938,10.781-7.188
		c9.375-5.83,15.83-11.299,19.375-16.406c3.54-5.102,5.313-9.531,5.313-13.281c0-3.125-0.991-5.625-2.969-7.5
		C861.041,168.166,858.805,167.023,856.305,166.604z"/>
</g>
</svg>
